<svg xmlns="http://www.w3.org/2000/svg" xmlns:xlink="http://www.w3.org/1999/xlink" version="1.1" width="1000" height="1000" viewBox="0 0 1000 1000" xml:space="preserve">
<desc>Created with Fabric.js 3.5.0</desc>
<defs>
</defs>
<rect x="0" y="0" width="100%" height="100%" fill="#ffffff"/>
<g transform="matrix(0.7885 0 0 0.7885 443.1922 495.3318)" id="734420">
<g style="" vector-effect="non-scaling-stroke">
		<g transform="matrix(1 0 0 1 330.605 511.39)" id="Layer_1">
<path style="stroke: none; stroke-width: 1; stroke-dasharray: none; stroke-linecap: butt; stroke-dashoffset: 0; stroke-linejoin: miter; stroke-miterlimit: 4; is-custom-font: none; font-file-url: none; fill: rgb(35,31,32); fill-rule: nonzero; opacity: 1;" transform=" translate(-892.675, -1139.585)" d="M 699.62 1113.02 h 0 c -20.06 44.48 -33.32 92.75 -38.4 143.37 l 424.51 -90.24 c 20.06 -44.47 33.31 -92.75 38.4 -143.37 l -424.51 90.24 Z" stroke-linecap="round"/>
</g>
		<g transform="matrix(1 0 0 1 -0.01 -47.37)" id="Layer_1">
<path style="stroke: none; stroke-width: 1; stroke-dasharray: none; stroke-linecap: butt; stroke-dashoffset: 0; stroke-linejoin: miter; stroke-miterlimit: 4; is-custom-font: none; font-file-url: none; fill: rgb(35,31,32); fill-rule: nonzero; opacity: 1;" transform=" translate(-562.06, -580.825)" d="M 1085.73 895.8 c 20.06 -44.47 33.32 -92.75 38.4 -143.37 l -330.68 70.33 v -135.2 l 292.27 -62.11 c 20.06 -44.47 33.32 -92.75 38.4 -143.37 l -330.68 70.27 V 66.13 c -50.67 28.45 -95.67 66.32 -132.25 110.99 v 403.35 l -132.25 28.11 V 0 c -50.67 28.44 -95.67 66.32 -132.25 110.99 v 525.69 l -295.91 62.88 c -20.06 44.47 -33.33 92.75 -38.42 143.37 l 334.33 -71.05 v 170.26 l -358.3 76.14 c -20.06 44.47 -33.32 92.75 -38.4 143.37 l 375.04 -79.7 c 30.53 -6.35 56.77 -24.4 73.83 -49.24 l 68.78 -101.97 v -0.02 c 7.14 -10.55 11.3 -23.27 11.3 -36.97 v -149.98 l 132.25 -28.11 v 270.4 l 424.53 -90.28 Z" stroke-linecap="round"/>
</g>
</g>
</g>
</svg>